<svg id="Layer_1" data-name="Layer 1" xmlns="http://www.w3.org/2000/svg" viewBox="0 0 319.63 44.61"><defs><style>.cls-1{fill:#1435c3;}.cls-2{fill:#5fe7ff;}</style></defs><title>S2_logo_pv_blue</title><path class="cls-1" d="M196.31,33.1v3.83h8.34v2.35c-4.31,0-8.52,0-12.73,0-1.09,0-1.53-.74-1.53-1.76,0-1.58,0-3.17,0-4.75s.71-2.27,2.35-2.25c4.4.07,8.8,0,13.2,0h3V26.39c-6.53,0-12.91-.09-19.28.05a4.36,4.36,0,0,0-4,4.43c-.1,2.46-.09,4.93,0,7.39.06,3.33,1.9,5.25,5.25,5.32l12,0h6.48V33.1Z" transform="translate(-7.26 -9.05)"/><polygon class="cls-1" points="93.26 34.52 98.1 34.52 98.1 28.46 110.98 28.46 110.98 34.54 115.67 34.54 115.67 17.46 110.89 17.46 110.89 23.88 98 23.88 98 17.47 93.26 17.47 93.26 34.52"/><path class="cls-1" d="M245.78,26.42h-4.85l0,12.73c.12,2.66,2.15,4.35,5,4.42h12.48c2.61-.07,4.76-1.69,4.87-4,0,0,.06-8.74.06-13.15h-4.72l0,10.65c0,1.56-.67,2.25-2.22,2.23-2.82,0-5.63-.06-8.44,0-1.64,0-2.33-.59-2.29-2.28Z" transform="translate(-7.26 -9.05)"/><path class="cls-1" d="M212.73,26.32,223.38,43.6h5.16l10.7-17.22h-5.67S228.27,35.29,226,39c-.47-.73-.86-1.3-1.22-1.89l-6.47-10.74s-3.79-.06-5.6-.06" transform="translate(-7.26 -9.05)"/><path class="cls-1" d="M274.62,26.32,285.27,43.6h5.16l10.69-17.22h-5.66s-5.3,8.91-7.55,12.63c-.48-.73-.86-1.3-1.22-1.89l-6.47-10.74s-3.79-.06-5.6-.06" transform="translate(-7.26 -9.05)"/><path class="cls-1" d="M147.1,26.33a4.8,4.8,0,0,1,5.06,5.1q.06,3.42,0,6.86c0,3.14-1.81,5.17-4.93,5.26-4.81.14-9.63.14-14.43,0-3.16-.09-4.91-2.06-5-5.22,0-2.34,0-4.69,0-7a4.7,4.7,0,0,1,5-5c2.41-.07,11.91-.06,14.26,0m-12.51,4.2c-1.23,0-1.88.51-1.89,1.75,0,1.76,0,3.52,0,5.28a1.53,1.53,0,0,0,1.72,1.74c3.69,0,7.38,0,11.07,0,1.2,0,1.85-.56,1.82-1.83,0-1.7,0-3.4,0-5.1a1.59,1.59,0,0,0-1.82-1.83Z" transform="translate(-7.26 -9.05)"/><polygon class="cls-1" points="172.79 34.54 167.7 34.54 155.25 23.16 155.25 34.54 150.43 34.54 150.43 17.5 155.77 17.5 167.96 28.88 167.96 17.47 172.79 17.47 172.79 34.54"/><polygon class="cls-1" points="319.63 34.54 314.54 34.54 302.09 23.16 302.09 34.54 297.27 34.54 297.27 17.5 302.61 17.5 314.8 28.88 314.8 17.47 319.63 17.47 319.63 34.54"/><path class="cls-1" d="M89.22,26.41c-4.22,0-9.65,0-13.87,0H71.26V43.6H76V38.26h3.28c3.4,0,6.8.08,10.2,0,3.64-.14,5.62-2.41,5.55-6.08a5.66,5.66,0,0,0-5.84-5.73m-.91,7.76H76.14V30.65H88.31a1.76,1.76,0,0,1,0,3.52" transform="translate(-7.26 -9.05)"/><rect class="cls-1" x="261.57" y="29.83" width="4.76" height="4.76"/><path class="cls-2" d="M34.16,21.09a8.51,8.51,0,1,0,8.51-8.51,8.51,8.51,0,0,0-8.51,8.51" transform="translate(-7.26 -9.05)"/><path class="cls-2" d="M10.79,45.15a8.51,8.51,0,1,0,8.51-8.51,8.51,8.51,0,0,0-8.51,8.51" transform="translate(-7.26 -9.05)"/><rect class="cls-2" x="10.79" y="12.58" width="17.02" height="17.02" transform="translate(-16.52 10.77) rotate(-45)"/><rect class="cls-2" x="26.9" y="27.59" width="17.02" height="17.02"/></svg>